<mxfile host="app.diagrams.net" modified="2023-06-12T19:55:13.996Z" agent="Mozilla/5.0 (X11; Linux x86_64; rv:102.0) Gecko/20100101 Firefox/102.0" etag="SZ4HeaYBNVK9DwO6YJXW" version="21.3.8" type="device">
  <diagram name="Page-1" id="h5WCU1tCkTW9juqxQmXQ">
    <mxGraphModel dx="558" dy="935" grid="1" gridSize="10" guides="1" tooltips="1" connect="1" arrows="1" fold="1" page="0" pageScale="1" pageWidth="3300" pageHeight="4681" math="0" shadow="0">
      <root>
        <mxCell id="0" />
        <mxCell id="1" parent="0" />
        <mxCell id="USGGhLtMeQK2liyZ37-o-40" style="edgeStyle=orthogonalEdgeStyle;rounded=0;orthogonalLoop=1;jettySize=auto;html=1;exitX=1;exitY=0.5;exitDx=0;exitDy=0;entryX=0;entryY=0.5;entryDx=0;entryDy=0;" edge="1" parent="1" source="USGGhLtMeQK2liyZ37-o-1" target="USGGhLtMeQK2liyZ37-o-34">
          <mxGeometry relative="1" as="geometry" />
        </mxCell>
        <mxCell id="USGGhLtMeQK2liyZ37-o-41" style="edgeStyle=orthogonalEdgeStyle;rounded=0;orthogonalLoop=1;jettySize=auto;html=1;exitX=0.5;exitY=1;exitDx=0;exitDy=0;entryX=0.5;entryY=0;entryDx=0;entryDy=0;" edge="1" parent="1" source="USGGhLtMeQK2liyZ37-o-1" target="USGGhLtMeQK2liyZ37-o-35">
          <mxGeometry relative="1" as="geometry" />
        </mxCell>
        <mxCell id="USGGhLtMeQK2liyZ37-o-1" value="&lt;div&gt;block under &lt;br&gt;&lt;/div&gt;&lt;div&gt;steve is solid&lt;/div&gt;" style="rounded=0;whiteSpace=wrap;html=1;" vertex="1" parent="1">
          <mxGeometry x="200" y="160" width="120" height="40" as="geometry" />
        </mxCell>
        <mxCell id="USGGhLtMeQK2liyZ37-o-31" style="edgeStyle=orthogonalEdgeStyle;rounded=0;orthogonalLoop=1;jettySize=auto;html=1;exitX=0.5;exitY=1;exitDx=0;exitDy=0;entryX=0.5;entryY=0;entryDx=0;entryDy=0;" edge="1" parent="1" source="USGGhLtMeQK2liyZ37-o-28" target="USGGhLtMeQK2liyZ37-o-1">
          <mxGeometry relative="1" as="geometry" />
        </mxCell>
        <mxCell id="USGGhLtMeQK2liyZ37-o-28" value="start" style="ellipse;whiteSpace=wrap;html=1;" vertex="1" parent="1">
          <mxGeometry x="200" y="100" width="120" height="40" as="geometry" />
        </mxCell>
        <mxCell id="USGGhLtMeQK2liyZ37-o-53" style="edgeStyle=orthogonalEdgeStyle;rounded=0;orthogonalLoop=1;jettySize=auto;html=1;exitX=0.5;exitY=1;exitDx=0;exitDy=0;entryX=1;entryY=0.5;entryDx=0;entryDy=0;" edge="1" parent="1" source="USGGhLtMeQK2liyZ37-o-34" target="USGGhLtMeQK2liyZ37-o-35">
          <mxGeometry relative="1" as="geometry" />
        </mxCell>
        <mxCell id="USGGhLtMeQK2liyZ37-o-34" value="&lt;div&gt;vertical accel. = gravity&lt;/div&gt;" style="rounded=0;whiteSpace=wrap;html=1;" vertex="1" parent="1">
          <mxGeometry x="360" y="160" width="120" height="40" as="geometry" />
        </mxCell>
        <mxCell id="USGGhLtMeQK2liyZ37-o-44" style="edgeStyle=orthogonalEdgeStyle;rounded=0;orthogonalLoop=1;jettySize=auto;html=1;exitX=0.5;exitY=1;exitDx=0;exitDy=0;" edge="1" parent="1" source="USGGhLtMeQK2liyZ37-o-35" target="USGGhLtMeQK2liyZ37-o-36">
          <mxGeometry relative="1" as="geometry" />
        </mxCell>
        <mxCell id="USGGhLtMeQK2liyZ37-o-46" style="edgeStyle=orthogonalEdgeStyle;rounded=0;orthogonalLoop=1;jettySize=auto;html=1;exitX=0;exitY=0.5;exitDx=0;exitDy=0;entryX=0;entryY=0.5;entryDx=0;entryDy=0;" edge="1" parent="1" source="USGGhLtMeQK2liyZ37-o-35" target="USGGhLtMeQK2liyZ37-o-37">
          <mxGeometry relative="1" as="geometry">
            <Array as="points">
              <mxPoint x="160" y="240" />
              <mxPoint x="160" y="360" />
            </Array>
          </mxGeometry>
        </mxCell>
        <mxCell id="USGGhLtMeQK2liyZ37-o-35" value="&lt;div&gt;is steve vertical &lt;br&gt;&lt;/div&gt;&lt;div&gt;speed deadly&lt;/div&gt;" style="rounded=0;whiteSpace=wrap;html=1;" vertex="1" parent="1">
          <mxGeometry x="200" y="220" width="120" height="40" as="geometry" />
        </mxCell>
        <mxCell id="USGGhLtMeQK2liyZ37-o-48" style="edgeStyle=orthogonalEdgeStyle;rounded=0;orthogonalLoop=1;jettySize=auto;html=1;exitX=0.5;exitY=1;exitDx=0;exitDy=0;entryX=0.5;entryY=0;entryDx=0;entryDy=0;" edge="1" parent="1" source="USGGhLtMeQK2liyZ37-o-36" target="USGGhLtMeQK2liyZ37-o-37">
          <mxGeometry relative="1" as="geometry" />
        </mxCell>
        <mxCell id="USGGhLtMeQK2liyZ37-o-36" value="remove a heart" style="rounded=0;whiteSpace=wrap;html=1;" vertex="1" parent="1">
          <mxGeometry x="200" y="280" width="120" height="40" as="geometry" />
        </mxCell>
        <mxCell id="USGGhLtMeQK2liyZ37-o-62" style="edgeStyle=orthogonalEdgeStyle;rounded=0;orthogonalLoop=1;jettySize=auto;html=1;exitX=1;exitY=0.5;exitDx=0;exitDy=0;entryX=0;entryY=0.5;entryDx=0;entryDy=0;" edge="1" parent="1" source="USGGhLtMeQK2liyZ37-o-37" target="USGGhLtMeQK2liyZ37-o-39">
          <mxGeometry relative="1" as="geometry" />
        </mxCell>
        <mxCell id="USGGhLtMeQK2liyZ37-o-63" style="edgeStyle=orthogonalEdgeStyle;rounded=0;orthogonalLoop=1;jettySize=auto;html=1;exitX=0.5;exitY=1;exitDx=0;exitDy=0;entryX=0.5;entryY=0;entryDx=0;entryDy=0;" edge="1" parent="1" source="USGGhLtMeQK2liyZ37-o-37" target="USGGhLtMeQK2liyZ37-o-54">
          <mxGeometry relative="1" as="geometry" />
        </mxCell>
        <mxCell id="USGGhLtMeQK2liyZ37-o-37" value="if up pressed" style="rounded=0;whiteSpace=wrap;html=1;" vertex="1" parent="1">
          <mxGeometry x="200" y="340" width="120" height="40" as="geometry" />
        </mxCell>
        <mxCell id="USGGhLtMeQK2liyZ37-o-115" style="edgeStyle=orthogonalEdgeStyle;rounded=0;orthogonalLoop=1;jettySize=auto;html=1;exitX=0.5;exitY=1;exitDx=0;exitDy=0;entryX=0.75;entryY=0;entryDx=0;entryDy=0;" edge="1" parent="1" source="USGGhLtMeQK2liyZ37-o-39" target="USGGhLtMeQK2liyZ37-o-54">
          <mxGeometry relative="1" as="geometry" />
        </mxCell>
        <mxCell id="USGGhLtMeQK2liyZ37-o-39" value="set speed (jump)" style="rounded=0;whiteSpace=wrap;html=1;" vertex="1" parent="1">
          <mxGeometry x="360" y="340" width="120" height="40" as="geometry" />
        </mxCell>
        <mxCell id="USGGhLtMeQK2liyZ37-o-42" value="true" style="text;html=1;strokeColor=none;fillColor=none;align=center;verticalAlign=middle;whiteSpace=wrap;rounded=0;" vertex="1" parent="1">
          <mxGeometry x="260" y="200" width="40" height="20" as="geometry" />
        </mxCell>
        <mxCell id="USGGhLtMeQK2liyZ37-o-43" value="false" style="text;html=1;strokeColor=none;fillColor=none;align=center;verticalAlign=middle;whiteSpace=wrap;rounded=0;" vertex="1" parent="1">
          <mxGeometry x="320" y="160" width="40" height="20" as="geometry" />
        </mxCell>
        <mxCell id="USGGhLtMeQK2liyZ37-o-45" value="true" style="text;html=1;strokeColor=none;fillColor=none;align=center;verticalAlign=middle;whiteSpace=wrap;rounded=0;" vertex="1" parent="1">
          <mxGeometry x="260" y="260" width="40" height="20" as="geometry" />
        </mxCell>
        <mxCell id="USGGhLtMeQK2liyZ37-o-47" value="false" style="text;html=1;strokeColor=none;fillColor=none;align=center;verticalAlign=middle;whiteSpace=wrap;rounded=0;" vertex="1" parent="1">
          <mxGeometry x="160" y="220" width="40" height="20" as="geometry" />
        </mxCell>
        <mxCell id="USGGhLtMeQK2liyZ37-o-116" style="edgeStyle=orthogonalEdgeStyle;rounded=0;orthogonalLoop=1;jettySize=auto;html=1;exitX=1;exitY=0.5;exitDx=0;exitDy=0;" edge="1" parent="1" source="USGGhLtMeQK2liyZ37-o-54" target="USGGhLtMeQK2liyZ37-o-56">
          <mxGeometry relative="1" as="geometry" />
        </mxCell>
        <mxCell id="USGGhLtMeQK2liyZ37-o-118" style="edgeStyle=orthogonalEdgeStyle;rounded=0;orthogonalLoop=1;jettySize=auto;html=1;exitX=0.5;exitY=1;exitDx=0;exitDy=0;entryX=0.5;entryY=0;entryDx=0;entryDy=0;" edge="1" parent="1" source="USGGhLtMeQK2liyZ37-o-54" target="USGGhLtMeQK2liyZ37-o-76">
          <mxGeometry relative="1" as="geometry" />
        </mxCell>
        <mxCell id="USGGhLtMeQK2liyZ37-o-54" value="if down (button) at falling edge" style="rounded=0;whiteSpace=wrap;html=1;" vertex="1" parent="1">
          <mxGeometry x="200" y="420" width="120" height="40" as="geometry" />
        </mxCell>
        <mxCell id="USGGhLtMeQK2liyZ37-o-120" style="edgeStyle=orthogonalEdgeStyle;rounded=0;orthogonalLoop=1;jettySize=auto;html=1;exitX=0.5;exitY=1;exitDx=0;exitDy=0;entryX=0.5;entryY=0;entryDx=0;entryDy=0;" edge="1" parent="1" source="USGGhLtMeQK2liyZ37-o-56" target="USGGhLtMeQK2liyZ37-o-85">
          <mxGeometry relative="1" as="geometry" />
        </mxCell>
        <mxCell id="USGGhLtMeQK2liyZ37-o-56" value="&lt;div&gt;put block in desired&lt;/div&gt;&lt;div&gt;position&lt;br&gt;&lt;/div&gt;" style="rounded=0;whiteSpace=wrap;html=1;" vertex="1" parent="1">
          <mxGeometry x="360" y="420" width="120" height="40" as="geometry" />
        </mxCell>
        <mxCell id="USGGhLtMeQK2liyZ37-o-94" style="edgeStyle=orthogonalEdgeStyle;rounded=0;orthogonalLoop=1;jettySize=auto;html=1;exitX=0.5;exitY=1;exitDx=0;exitDy=0;entryX=0.5;entryY=0;entryDx=0;entryDy=0;" edge="1" parent="1" source="USGGhLtMeQK2liyZ37-o-76" target="USGGhLtMeQK2liyZ37-o-77">
          <mxGeometry relative="1" as="geometry" />
        </mxCell>
        <mxCell id="USGGhLtMeQK2liyZ37-o-126" style="edgeStyle=orthogonalEdgeStyle;rounded=0;orthogonalLoop=1;jettySize=auto;html=1;exitX=1;exitY=0.5;exitDx=0;exitDy=0;entryX=1;entryY=1;entryDx=0;entryDy=0;" edge="1" parent="1" source="USGGhLtMeQK2liyZ37-o-76" target="USGGhLtMeQK2liyZ37-o-117">
          <mxGeometry relative="1" as="geometry">
            <Array as="points">
              <mxPoint x="340" y="500" />
              <mxPoint x="340" y="440" />
            </Array>
          </mxGeometry>
        </mxCell>
        <mxCell id="USGGhLtMeQK2liyZ37-o-76" value="if down pressed " style="rounded=0;whiteSpace=wrap;html=1;" vertex="1" parent="1">
          <mxGeometry x="200" y="480" width="120" height="40" as="geometry" />
        </mxCell>
        <mxCell id="USGGhLtMeQK2liyZ37-o-88" style="edgeStyle=orthogonalEdgeStyle;rounded=0;orthogonalLoop=1;jettySize=auto;html=1;exitX=0.5;exitY=1;exitDx=0;exitDy=0;entryX=0.5;entryY=0;entryDx=0;entryDy=0;" edge="1" parent="1" source="USGGhLtMeQK2liyZ37-o-77" target="USGGhLtMeQK2liyZ37-o-80">
          <mxGeometry relative="1" as="geometry" />
        </mxCell>
        <mxCell id="USGGhLtMeQK2liyZ37-o-113" style="edgeStyle=orthogonalEdgeStyle;rounded=0;orthogonalLoop=1;jettySize=auto;html=1;exitX=0;exitY=0.5;exitDx=0;exitDy=0;entryX=0;entryY=0.5;entryDx=0;entryDy=0;" edge="1" parent="1" source="USGGhLtMeQK2liyZ37-o-77" target="USGGhLtMeQK2liyZ37-o-78">
          <mxGeometry relative="1" as="geometry">
            <Array as="points">
              <mxPoint x="160" y="560" />
              <mxPoint x="160" y="680" />
            </Array>
          </mxGeometry>
        </mxCell>
        <mxCell id="USGGhLtMeQK2liyZ37-o-77" value="&lt;div&gt;if left pressed and&lt;/div&gt;&lt;div&gt;no left obstacles&lt;br&gt;&lt;/div&gt;" style="rounded=0;whiteSpace=wrap;html=1;" vertex="1" parent="1">
          <mxGeometry x="200" y="540" width="120" height="40" as="geometry" />
        </mxCell>
        <mxCell id="USGGhLtMeQK2liyZ37-o-92" style="edgeStyle=orthogonalEdgeStyle;rounded=0;orthogonalLoop=1;jettySize=auto;html=1;exitX=0.5;exitY=1;exitDx=0;exitDy=0;entryX=0.5;entryY=0;entryDx=0;entryDy=0;" edge="1" parent="1" source="USGGhLtMeQK2liyZ37-o-78" target="USGGhLtMeQK2liyZ37-o-83">
          <mxGeometry relative="1" as="geometry" />
        </mxCell>
        <mxCell id="USGGhLtMeQK2liyZ37-o-127" style="edgeStyle=orthogonalEdgeStyle;rounded=0;orthogonalLoop=1;jettySize=auto;html=1;exitX=1;exitY=0.5;exitDx=0;exitDy=0;entryX=1;entryY=1;entryDx=0;entryDy=0;" edge="1" parent="1" source="USGGhLtMeQK2liyZ37-o-78" target="USGGhLtMeQK2liyZ37-o-117">
          <mxGeometry relative="1" as="geometry">
            <Array as="points">
              <mxPoint x="340" y="680" />
              <mxPoint x="340" y="440" />
            </Array>
          </mxGeometry>
        </mxCell>
        <mxCell id="USGGhLtMeQK2liyZ37-o-78" value="&lt;div&gt;if right pressed &lt;br&gt;&lt;/div&gt;&lt;div&gt;and no left obstacles&lt;br&gt;&lt;/div&gt;" style="rounded=0;whiteSpace=wrap;html=1;" vertex="1" parent="1">
          <mxGeometry x="200" y="660" width="120" height="40" as="geometry" />
        </mxCell>
        <mxCell id="USGGhLtMeQK2liyZ37-o-90" style="edgeStyle=orthogonalEdgeStyle;rounded=0;orthogonalLoop=1;jettySize=auto;html=1;exitX=0.5;exitY=1;exitDx=0;exitDy=0;entryX=0.5;entryY=0;entryDx=0;entryDy=0;" edge="1" parent="1" source="USGGhLtMeQK2liyZ37-o-80" target="USGGhLtMeQK2liyZ37-o-78">
          <mxGeometry relative="1" as="geometry" />
        </mxCell>
        <mxCell id="USGGhLtMeQK2liyZ37-o-80" value="go left performing animation" style="rounded=0;whiteSpace=wrap;html=1;" vertex="1" parent="1">
          <mxGeometry x="200" y="600" width="120" height="40" as="geometry" />
        </mxCell>
        <mxCell id="USGGhLtMeQK2liyZ37-o-128" style="edgeStyle=orthogonalEdgeStyle;rounded=0;orthogonalLoop=1;jettySize=auto;html=1;exitX=1;exitY=0.5;exitDx=0;exitDy=0;entryX=0;entryY=0.5;entryDx=0;entryDy=0;" edge="1" parent="1" source="USGGhLtMeQK2liyZ37-o-83" target="USGGhLtMeQK2liyZ37-o-56">
          <mxGeometry relative="1" as="geometry" />
        </mxCell>
        <mxCell id="USGGhLtMeQK2liyZ37-o-83" value="go left performing animation" style="rounded=0;whiteSpace=wrap;html=1;" vertex="1" parent="1">
          <mxGeometry x="200" y="720" width="120" height="40" as="geometry" />
        </mxCell>
        <mxCell id="USGGhLtMeQK2liyZ37-o-123" style="edgeStyle=orthogonalEdgeStyle;rounded=0;orthogonalLoop=1;jettySize=auto;html=1;exitX=0.5;exitY=1;exitDx=0;exitDy=0;" edge="1" parent="1" source="USGGhLtMeQK2liyZ37-o-85" target="USGGhLtMeQK2liyZ37-o-86">
          <mxGeometry relative="1" as="geometry" />
        </mxCell>
        <mxCell id="USGGhLtMeQK2liyZ37-o-85" value="&lt;div&gt;performs integral of accel. and velocity &lt;/div&gt;" style="rounded=0;whiteSpace=wrap;html=1;" vertex="1" parent="1">
          <mxGeometry x="360" y="480" width="120" height="40" as="geometry" />
        </mxCell>
        <mxCell id="USGGhLtMeQK2liyZ37-o-124" style="edgeStyle=orthogonalEdgeStyle;rounded=0;orthogonalLoop=1;jettySize=auto;html=1;exitX=0.5;exitY=1;exitDx=0;exitDy=0;" edge="1" parent="1" source="USGGhLtMeQK2liyZ37-o-86" target="USGGhLtMeQK2liyZ37-o-87">
          <mxGeometry relative="1" as="geometry" />
        </mxCell>
        <mxCell id="USGGhLtMeQK2liyZ37-o-86" value="hard limit on velocity" style="rounded=0;whiteSpace=wrap;html=1;" vertex="1" parent="1">
          <mxGeometry x="360" y="540" width="120" height="40" as="geometry" />
        </mxCell>
        <mxCell id="USGGhLtMeQK2liyZ37-o-125" style="edgeStyle=orthogonalEdgeStyle;rounded=0;orthogonalLoop=1;jettySize=auto;html=1;exitX=0.5;exitY=1;exitDx=0;exitDy=0;" edge="1" parent="1" source="USGGhLtMeQK2liyZ37-o-87" target="USGGhLtMeQK2liyZ37-o-100">
          <mxGeometry relative="1" as="geometry" />
        </mxCell>
        <mxCell id="USGGhLtMeQK2liyZ37-o-87" value="&lt;div&gt;compute &lt;br&gt;&lt;/div&gt;&lt;div&gt;world position with&lt;/div&gt;&lt;div&gt;low pass filter&lt;br&gt;&lt;/div&gt;" style="rounded=0;whiteSpace=wrap;html=1;" vertex="1" parent="1">
          <mxGeometry x="360" y="600" width="120" height="40" as="geometry" />
        </mxCell>
        <mxCell id="USGGhLtMeQK2liyZ37-o-89" value="true" style="text;html=1;strokeColor=none;fillColor=none;align=center;verticalAlign=middle;whiteSpace=wrap;rounded=0;" vertex="1" parent="1">
          <mxGeometry x="260" y="580" width="40" height="20" as="geometry" />
        </mxCell>
        <mxCell id="USGGhLtMeQK2liyZ37-o-91" value="true" style="text;html=1;strokeColor=none;fillColor=none;align=center;verticalAlign=middle;whiteSpace=wrap;rounded=0;" vertex="1" parent="1">
          <mxGeometry x="260" y="700" width="40" height="20" as="geometry" />
        </mxCell>
        <mxCell id="USGGhLtMeQK2liyZ37-o-100" value="end" style="ellipse;whiteSpace=wrap;html=1;" vertex="1" parent="1">
          <mxGeometry x="360" y="660" width="120" height="40" as="geometry" />
        </mxCell>
        <mxCell id="USGGhLtMeQK2liyZ37-o-102" value="true" style="text;html=1;strokeColor=none;fillColor=none;align=center;verticalAlign=middle;whiteSpace=wrap;rounded=0;" vertex="1" parent="1">
          <mxGeometry x="320" y="340" width="40" height="20" as="geometry" />
        </mxCell>
        <mxCell id="USGGhLtMeQK2liyZ37-o-103" value="false" style="text;html=1;strokeColor=none;fillColor=none;align=center;verticalAlign=middle;whiteSpace=wrap;rounded=0;" vertex="1" parent="1">
          <mxGeometry x="220" y="380" width="40" height="20" as="geometry" />
        </mxCell>
        <mxCell id="USGGhLtMeQK2liyZ37-o-104" value="false" style="text;html=1;strokeColor=none;fillColor=none;align=center;verticalAlign=middle;whiteSpace=wrap;rounded=0;" vertex="1" parent="1">
          <mxGeometry x="220" y="520" width="40" height="20" as="geometry" />
        </mxCell>
        <mxCell id="USGGhLtMeQK2liyZ37-o-114" value="false" style="text;html=1;strokeColor=none;fillColor=none;align=center;verticalAlign=middle;whiteSpace=wrap;rounded=0;" vertex="1" parent="1">
          <mxGeometry x="160" y="540" width="40" height="20" as="geometry" />
        </mxCell>
        <mxCell id="USGGhLtMeQK2liyZ37-o-117" value="true" style="text;html=1;strokeColor=none;fillColor=none;align=center;verticalAlign=middle;whiteSpace=wrap;rounded=0;" vertex="1" parent="1">
          <mxGeometry x="320" y="420" width="40" height="20" as="geometry" />
        </mxCell>
        <mxCell id="USGGhLtMeQK2liyZ37-o-119" value="false" style="text;html=1;strokeColor=none;fillColor=none;align=center;verticalAlign=middle;whiteSpace=wrap;rounded=0;" vertex="1" parent="1">
          <mxGeometry x="220" y="460" width="40" height="20" as="geometry" />
        </mxCell>
        <mxCell id="USGGhLtMeQK2liyZ37-o-129" value="T" style="text;html=1;strokeColor=none;fillColor=none;align=center;verticalAlign=middle;whiteSpace=wrap;rounded=0;" vertex="1" parent="1">
          <mxGeometry x="320" y="480" width="20" height="20" as="geometry" />
        </mxCell>
        <mxCell id="USGGhLtMeQK2liyZ37-o-130" value="F" style="text;html=1;strokeColor=none;fillColor=none;align=center;verticalAlign=middle;whiteSpace=wrap;rounded=0;" vertex="1" parent="1">
          <mxGeometry x="320" y="660" width="20" height="20" as="geometry" />
        </mxCell>
      </root>
    </mxGraphModel>
  </diagram>
</mxfile>
